<svg xmlns="http://www.w3.org/2000/svg" xmlns:xlink="http://www.w3.org/1999/xlink" width="363" zoomAndPan="magnify" viewBox="0 0 272.25 144.75" height="193" preserveAspectRatio="xMidYMid meet" version="1.2"><defs><clipPath id="5e6470cf6a"><path d="M 8.980469 43.480469 L 60.609375 43.480469 L 60.609375 95.859375 L 8.980469 95.859375 Z M 8.980469 43.480469 "/></clipPath></defs><g id="ac883b05a1"><path style=" stroke:none;fill-rule:nonzero;fill:#194e94;fill-opacity:1;" d="M 33.84375 48.644531 C 33.84375 48.644531 33.855469 48.660156 33.855469 48.664062 L 33.863281 48.664062 C 33.863281 48.664062 33.851562 48.644531 33.84375 48.644531 Z M 31.003906 46.449219 C 31.003906 46.449219 30.945312 46.414062 30.910156 46.402344 C 30.9375 46.421875 30.964844 46.433594 30.996094 46.457031 C 31.023438 46.46875 31.058594 46.480469 31.085938 46.496094 C 31.058594 46.480469 31.03125 46.460938 31.003906 46.449219 Z M 37.480469 45 Z M 40.039062 44.996094 L 40.046875 44.996094 C 40.046875 44.996094 40.058594 45 40.066406 44.996094 Z M 40.039062 44.996094 "/><path style=" stroke:none;fill-rule:nonzero;fill:#194e94;fill-opacity:1;" d="M 40.066406 44.996094 C 40.066406 44.996094 40.054688 45 40.046875 45 L 40.066406 45 Z M 40.066406 44.996094 "/><path style=" stroke:none;fill-rule:nonzero;fill:#194e94;fill-opacity:1;" d="M 37.703125 45 L 37.519531 45.007812 L 37.480469 45 Z M 37.703125 45 "/><path style=" stroke:none;fill-rule:nonzero;fill:#194e94;fill-opacity:1;" d="M 37.703125 45 L 37.519531 45.007812 L 37.480469 45 Z M 37.703125 45 "/><path style=" stroke:none;fill-rule:nonzero;fill:#194e94;fill-opacity:1;" d="M 40.066406 44.996094 C 40.066406 44.996094 40.054688 45 40.046875 45 L 40.066406 45 Z M 40.066406 44.996094 "/><path style=" stroke:none;fill-rule:nonzero;fill:#194e94;fill-opacity:1;" d="M 13.808594 70.925781 C 13.808594 71.070312 13.816406 71.226562 13.824219 71.375 C 13.824219 71.398438 13.824219 71.425781 13.828125 71.453125 C 13.816406 71.28125 13.808594 71.105469 13.808594 70.925781 Z M 13.808594 70.925781 "/><path style=" stroke:none;fill-rule:nonzero;fill:#194e94;fill-opacity:1;" d="M 31.003906 46.449219 C 31.003906 46.449219 30.996094 46.457031 30.996094 46.457031 C 30.964844 46.433594 30.9375 46.421875 30.910156 46.402344 C 30.945312 46.414062 30.976562 46.429688 31.003906 46.449219 Z M 31.003906 46.449219 "/><g clip-rule="nonzero" clip-path="url(#5e6470cf6a)"><path style=" stroke:none;fill-rule:nonzero;fill:#194e94;fill-opacity:1;" d="M 58.246094 56.363281 C 56.804688 52.597656 54.917969 49.652344 52.464844 47.359375 C 49.726562 44.800781 46.351562 43.601562 42.625 43.628906 C 37.285156 43.667969 31.949219 43.5 26.617188 43.695312 C 24.734375 43.761719 22.84375 43.949219 21.089844 44.671875 C 19.335938 45.398438 17.835938 46.589844 16.523438 47.929688 C 14.042969 50.460938 12.195312 53.636719 10.863281 57.640625 C 9.335938 62.214844 8.730469 67.148438 9.066406 72.292969 C 9.355469 76.785156 10.304688 80.785156 11.980469 84.503906 C 13.5 87.890625 15.382812 90.496094 17.734375 92.472656 C 19.246094 93.746094 20.996094 94.730469 22.910156 95.226562 C 25.382812 95.871094 28.035156 95.609375 30.5625 95.609375 L 38.71875 95.609375 C 41.546875 95.609375 44.640625 95.9375 47.367188 95.03125 C 47.945312 94.84375 48.535156 94.597656 49.117188 94.296875 C 49.726562 93.980469 50.308594 93.625 50.832031 93.238281 C 51.160156 93.007812 51.496094 92.75 51.929688 92.386719 C 52.144531 92.191406 52.363281 92.003906 52.566406 91.808594 C 54.546875 89.949219 56.167969 87.597656 57.523438 84.621094 C 58.328125 82.859375 58.96875 81 59.457031 79.050781 C 60.699219 74.105469 60.914062 68.847656 60.167969 63.8125 C 59.792969 61.273438 59.15625 58.765625 58.238281 56.367188 Z M 40.066406 44.996094 C 40.066406 44.996094 40.054688 45 40.046875 45 L 40.066406 45 Z M 37.703125 44.996094 Z M 33.5625 45.914062 C 35.332031 46.757812 36.71875 47.796875 37.847656 49.121094 C 37.882812 49.15625 37.921875 49.195312 37.957031 49.234375 C 39.652344 51.011719 41.039062 53.214844 42.175781 55.953125 C 43.835938 59.917969 44.703125 64.097656 44.78125 68.640625 C 44.789062 68.921875 44.796875 69.195312 44.796875 69.464844 C 44.855469 74.507812 43.992188 79.089844 42.183594 83.425781 C 41.050781 86.144531 39.671875 88.332031 37.957031 90.136719 C 37.917969 90.1875 37.871094 90.234375 37.824219 90.28125 C 37.472656 90.691406 37.097656 91.074219 36.710938 91.414062 C 36.335938 91.101562 35.96875 90.777344 35.746094 90.550781 C 37.207031 88.902344 38.390625 87.035156 39.464844 84.703125 C 41.226562 80.839844 42.210938 76.726562 42.484375 72.109375 C 42.847656 66.015625 41.984375 60.5625 39.84375 55.4375 C 38.625 52.496094 37.121094 50.125 35.269531 48.21875 C 35.128906 48.054688 34.988281 47.894531 34.84375 47.742188 C 34.703125 47.585938 34.546875 47.441406 34.394531 47.292969 C 34.265625 47.164062 34.132812 47.042969 33.992188 46.925781 C 33.957031 46.890625 33.925781 46.863281 33.890625 46.835938 C 33.738281 46.703125 33.582031 46.574219 33.414062 46.449219 C 33.292969 46.347656 33.167969 46.253906 33.035156 46.160156 C 32.886719 46.054688 32.738281 45.945312 32.585938 45.847656 C 32.375 45.707031 32.164062 45.570312 31.949219 45.445312 C 31.839844 45.378906 31.746094 45.316406 31.632812 45.257812 C 32.363281 45.425781 32.988281 45.636719 33.5625 45.914062 Z M 34.808594 89.574219 C 32.617188 86.988281 30.902344 83.757812 29.804688 80.113281 C 28.792969 76.730469 28.296875 73.101562 28.332031 69.332031 C 28.359375 65.210938 29.015625 61.292969 30.285156 57.667969 C 31.40625 54.492188 32.871094 51.867188 34.773438 49.664062 C 36.316406 51.378906 37.566406 53.441406 38.605469 55.953125 C 40.667969 60.882812 41.5 66.140625 41.144531 72.03125 C 40.882812 76.476562 39.933594 80.4375 38.246094 84.140625 C 37.253906 86.3125 36.15625 88.050781 34.808594 89.574219 Z M 18.597656 91.441406 C 16.40625 89.601562 14.640625 87.148438 13.207031 83.945312 C 11.597656 80.375 10.679688 76.53125 10.398438 72.199219 C 10.078125 67.226562 10.660156 62.464844 12.128906 58.058594 C 13.394531 54.253906 15.140625 51.246094 17.472656 48.859375 C 19.222656 47.066406 21.070312 45.90625 23.078125 45.363281 C 21.765625 46.148438 20.667969 47.058594 19.757812 48.125 C 19.742188 48.136719 19.730469 48.15625 19.71875 48.171875 C 18.566406 49.371094 17.554688 50.734375 16.65625 52.304688 C 16.261719 52.980469 15.890625 53.695312 15.550781 54.445312 C 14.667969 56.390625 13.976562 58.390625 13.472656 60.496094 C 13.414062 60.742188 13.351562 60.992188 13.300781 61.246094 C 13.246094 61.511719 13.1875 61.773438 13.140625 62.042969 C 13.097656 62.261719 13.058594 62.484375 13.019531 62.710938 C 13.019531 62.710938 13.011719 62.753906 13.011719 62.773438 L 12.972656 63.015625 C 12.972656 63.015625 12.964844 63.0625 12.957031 63.082031 C 12.945312 63.1875 12.925781 63.289062 12.910156 63.394531 C 12.878906 63.617188 12.84375 63.835938 12.816406 64.058594 C 12.804688 64.132812 12.796875 64.214844 12.785156 64.285156 C 12.777344 64.355469 12.769531 64.421875 12.757812 64.488281 C 12.742188 64.566406 12.738281 64.640625 12.730469 64.722656 C 12.691406 65.035156 12.664062 65.359375 12.628906 65.679688 L 12.628906 65.691406 C 12.628906 65.691406 12.628906 65.71875 12.628906 65.734375 L 12.628906 65.765625 C 12.589844 66.1875 12.554688 66.609375 12.53125 67.039062 C 12.507812 67.402344 12.488281 67.761719 12.476562 68.125 L 12.476562 68.226562 C 12.476562 68.226562 12.46875 68.277344 12.46875 68.304688 L 12.46875 68.441406 C 12.457031 68.816406 12.449219 69.183594 12.449219 69.542969 L 12.449219 69.691406 C 12.449219 70.0625 12.457031 70.421875 12.46875 70.785156 L 12.46875 70.8125 C 12.496094 71.976562 12.578125 73.113281 12.710938 74.234375 C 12.742188 74.554688 12.785156 74.875 12.832031 75.191406 C 12.917969 75.789062 13.011719 76.371094 13.125 76.953125 C 13.582031 79.285156 14.265625 81.527344 15.175781 83.710938 C 16.386719 86.644531 17.882812 89.011719 19.722656 90.914062 L 19.742188 90.933594 C 20.78125 92.152344 22.042969 93.164062 23.574219 93.992188 C 21.800781 93.59375 20.160156 92.75 18.605469 91.441406 Z M 25.015625 93.238281 C 23.253906 92.394531 21.859375 91.363281 20.726562 90.035156 C 18.972656 88.21875 17.558594 85.984375 16.402344 83.195312 C 15.542969 81.148438 14.902344 79.035156 14.464844 76.851562 C 14.453125 76.800781 14.4375 76.738281 14.433594 76.683594 C 14.292969 75.941406 14.171875 75.183594 14.078125 74.421875 C 14.035156 74.121094 14.003906 73.824219 13.976562 73.523438 C 13.964844 73.417969 13.957031 73.316406 13.949219 73.207031 C 13.917969 72.800781 13.882812 72.390625 13.855469 71.96875 C 13.847656 71.902344 13.847656 71.84375 13.84375 71.777344 C 13.84375 71.667969 13.828125 71.554688 13.828125 71.445312 C 13.824219 71.421875 13.824219 71.394531 13.824219 71.367188 C 13.816406 71.21875 13.808594 71.066406 13.808594 70.917969 C 13.800781 70.863281 13.800781 70.816406 13.800781 70.765625 C 13.789062 70.363281 13.78125 69.953125 13.78125 69.542969 C 13.78125 69.332031 13.789062 69.121094 13.789062 68.910156 C 13.789062 68.800781 13.789062 68.699219 13.796875 68.59375 C 13.789062 68.488281 13.796875 68.386719 13.796875 68.277344 C 13.816406 67.46875 13.855469 66.671875 13.9375 65.878906 C 13.949219 65.621094 13.984375 65.351562 14.023438 65.097656 C 14.023438 65.035156 14.035156 64.976562 14.042969 64.917969 C 14.0625 64.753906 14.082031 64.601562 14.105469 64.441406 L 14.105469 64.425781 C 14.128906 64.167969 14.164062 63.90625 14.21875 63.648438 C 14.246094 63.410156 14.285156 63.167969 14.332031 62.925781 C 14.371094 62.71875 14.40625 62.519531 14.445312 62.3125 C 14.492188 62.054688 14.539062 61.808594 14.597656 61.558594 C 14.652344 61.320312 14.707031 61.070312 14.765625 60.832031 C 15.183594 59.140625 15.71875 57.5 16.394531 55.886719 C 16.640625 55.277344 16.898438 54.699219 17.179688 54.152344 C 17.105469 54.292969 17.042969 54.433594 16.96875 54.574219 C 17.0625 54.378906 17.15625 54.183594 17.265625 53.996094 C 17.285156 53.949219 17.3125 53.898438 17.339844 53.851562 C 17.390625 53.738281 17.453125 53.621094 17.519531 53.507812 C 17.582031 53.394531 17.640625 53.289062 17.699219 53.175781 C 17.910156 52.804688 18.117188 52.445312 18.332031 52.101562 C 18.472656 51.882812 18.617188 51.671875 18.757812 51.460938 C 18.894531 51.273438 19.027344 51.089844 19.160156 50.902344 C 19.65625 50.238281 20.179688 49.605469 20.742188 49.019531 C 21.847656 47.726562 23.242188 46.691406 25.003906 45.851562 C 25.542969 45.597656 26.128906 45.390625 26.796875 45.222656 C 25.4375 46.019531 24.3125 46.957031 23.386719 48.042969 C 21.527344 49.964844 20.019531 52.335938 18.785156 55.289062 C 16.902344 59.785156 16.007812 64.542969 16.066406 69.757812 C 16.066406 70.074219 16.074219 70.390625 16.078125 70.703125 C 16.179688 75.386719 17.078125 79.699219 18.792969 83.792969 C 20.023438 86.746094 21.53125 89.117188 23.367188 91.007812 C 24.3125 92.125 25.445312 93.0625 26.804688 93.859375 C 26.132812 93.699219 25.550781 93.492188 25.007812 93.238281 Z M 28.644531 93.3125 C 26.878906 92.472656 25.492188 91.433594 24.367188 90.109375 C 24.324219 90.070312 24.292969 90.027344 24.25 89.988281 C 22.558594 88.214844 21.175781 86.015625 20.03125 83.277344 C 18.382812 79.332031 17.527344 75.183594 17.425781 70.671875 C 17.417969 70.363281 17.414062 70.0625 17.414062 69.757812 C 17.359375 64.722656 18.222656 60.140625 20.023438 55.804688 C 21.164062 53.082031 22.535156 50.894531 24.25 49.089844 C 24.292969 49.039062 24.339844 48.988281 24.386719 48.941406 C 25.484375 47.648438 26.871094 46.609375 28.644531 45.773438 C 28.800781 45.691406 28.960938 45.625 29.121094 45.566406 L 29.128906 45.566406 C 29.289062 45.617188 29.449219 45.679688 29.597656 45.738281 C 28.597656 46.414062 27.726562 47.191406 27.003906 48.042969 C 25.144531 49.964844 23.636719 52.335938 22.402344 55.289062 C 20.519531 59.785156 19.625 64.542969 19.683594 69.757812 C 19.683594 70.074219 19.691406 70.390625 19.695312 70.703125 C 19.796875 75.386719 20.695312 79.699219 22.410156 83.792969 C 23.640625 86.753906 25.148438 89.125 26.984375 91.007812 C 27.976562 92.179688 29.175781 93.15625 30.636719 93.988281 C 29.886719 93.8125 29.234375 93.597656 28.644531 93.3125 Z M 32.257812 93.3125 C 30.488281 92.472656 29.101562 91.433594 27.976562 90.109375 C 27.9375 90.070312 27.894531 90.027344 27.863281 89.988281 C 26.167969 88.214844 24.789062 86.015625 23.640625 83.277344 C 21.996094 79.332031 21.136719 75.183594 21.035156 70.671875 C 21.03125 70.363281 21.023438 70.0625 21.023438 69.753906 C 20.96875 64.714844 21.832031 60.132812 23.636719 55.804688 C 24.765625 53.085938 26.148438 50.894531 27.863281 49.089844 C 27.902344 49.039062 27.949219 48.988281 27.996094 48.941406 C 28.8125 47.976562 29.824219 47.136719 30.996094 46.449219 C 30.964844 46.429688 30.9375 46.414062 30.910156 46.394531 C 30.945312 46.410156 30.976562 46.421875 31.003906 46.441406 C 31.03125 46.457031 31.058594 46.476562 31.085938 46.488281 C 31.125 46.507812 31.164062 46.527344 31.199219 46.554688 C 31.390625 46.667969 31.578125 46.785156 31.761719 46.910156 C 31.367188 47.257812 30.992188 47.648438 30.648438 48.042969 C 28.785156 49.964844 27.28125 52.335938 26.046875 55.289062 C 24.164062 59.785156 23.265625 64.542969 23.328125 69.757812 C 23.328125 70.074219 23.335938 70.390625 23.339844 70.703125 C 23.441406 75.386719 24.339844 79.699219 26.054688 83.792969 C 27.285156 86.746094 28.792969 89.117188 30.628906 91.007812 C 31.625 92.183594 32.839844 93.171875 34.304688 94 C 33.527344 93.828125 32.859375 93.605469 32.257812 93.3125 Z M 35.898438 93.3125 C 34.136719 92.472656 32.746094 91.433594 31.621094 90.109375 C 31.578125 90.070312 31.546875 90.027344 31.507812 89.988281 C 29.8125 88.214844 28.429688 86.015625 27.285156 83.277344 C 25.636719 79.332031 24.78125 75.183594 24.679688 70.671875 C 24.671875 70.363281 24.667969 70.0625 24.667969 69.757812 C 24.667969 68.921875 24.695312 68.066406 24.746094 67.199219 C 25.007812 62.746094 25.960938 58.789062 27.65625 55.082031 C 28.699219 52.792969 29.886719 50.875 31.398438 49.234375 L 31.507812 49.09375 C 31.546875 49.039062 31.59375 48.992188 31.640625 48.945312 C 32.023438 48.5 32.429688 48.089844 32.859375 47.722656 C 32.871094 47.722656 32.878906 47.734375 32.894531 47.75 C 33.046875 47.875 33.199219 48.007812 33.347656 48.148438 C 33.363281 48.148438 33.382812 48.175781 33.394531 48.191406 C 33.550781 48.332031 33.703125 48.476562 33.84375 48.640625 C 33.851562 48.640625 33.855469 48.640625 33.863281 48.652344 L 33.855469 48.652344 C 31.808594 51.015625 30.21875 53.824219 29.019531 57.226562 C 27.703125 60.992188 27.019531 65.058594 26.992188 69.316406 C 26.957031 73.230469 27.472656 76.988281 28.523438 80.496094 C 29.890625 85.046875 32.1875 89.003906 35.164062 91.929688 C 35.539062 92.292969 35.886719 92.601562 36.226562 92.867188 C 36.75 93.277344 37.3125 93.652344 37.910156 93.988281 C 37.144531 93.820312 36.496094 93.597656 35.898438 93.3125 Z M 38.519531 92.753906 C 38.3125 92.632812 38.109375 92.5 37.917969 92.367188 C 37.875 92.339844 37.824219 92.304688 37.769531 92.265625 C 38.144531 91.929688 38.492188 91.5625 38.8125 91.1875 C 40.675781 89.265625 42.183594 86.894531 43.421875 83.941406 C 45.296875 79.4375 46.195312 74.683594 46.136719 69.464844 C 46.136719 69.175781 46.128906 68.886719 46.121094 68.601562 C 46.027344 63.890625 45.128906 59.558594 43.414062 55.4375 C 42.175781 52.476562 40.667969 50.105469 38.839844 48.222656 C 37.84375 47.042969 36.636719 46.058594 35.164062 45.234375 C 35.941406 45.402344 36.605469 45.625 37.207031 45.914062 C 38.976562 46.757812 40.363281 47.796875 41.492188 49.121094 C 41.527344 49.15625 41.566406 49.195312 41.601562 49.234375 C 43.296875 51.011719 44.683594 53.214844 45.820312 55.953125 C 46.28125 57.058594 46.683594 58.183594 47.019531 59.324219 C 47.160156 59.777344 47.28125 60.234375 47.394531 60.695312 C 47.515625 61.160156 47.617188 61.628906 47.710938 62.097656 C 47.761719 62.363281 47.816406 62.632812 47.863281 62.898438 C 48.078125 64.050781 48.21875 65.222656 48.3125 66.417969 C 48.332031 66.664062 48.351562 66.914062 48.359375 67.160156 C 48.371094 67.355469 48.386719 67.554688 48.394531 67.75 C 48.40625 67.949219 48.414062 68.152344 48.417969 68.351562 C 48.433594 68.726562 48.441406 69.101562 48.441406 69.472656 C 48.5 74.507812 47.636719 79.089844 45.828125 83.425781 C 44.695312 86.144531 43.316406 88.332031 41.601562 90.136719 C 41.558594 90.1875 41.511719 90.234375 41.464844 90.28125 C 40.644531 91.246094 39.679688 92.066406 38.519531 92.753906 Z M 40.824219 93.457031 C 40.683594 93.523438 40.542969 93.59375 40.394531 93.644531 C 40.394531 93.644531 40.386719 93.644531 40.382812 93.644531 L 40.375 93.644531 C 40.300781 93.613281 40.222656 93.585938 40.148438 93.550781 C 40.066406 93.519531 39.984375 93.484375 39.90625 93.453125 C 40.882812 92.78125 41.746094 92.019531 42.457031 91.179688 C 44.320312 89.257812 45.828125 86.886719 47.066406 83.933594 C 48.941406 79.433594 49.839844 74.683594 49.78125 69.457031 C 49.78125 69.167969 49.773438 68.882812 49.765625 68.59375 C 49.671875 63.882812 48.773438 59.550781 47.058594 55.429688 C 45.820312 52.46875 44.3125 50.097656 42.484375 48.21875 C 41.492188 47.042969 40.292969 46.066406 38.835938 45.242188 C 39.585938 45.410156 40.226562 45.625 40.816406 45.90625 C 42.585938 46.75 43.972656 47.789062 45.105469 49.113281 C 45.136719 49.148438 45.175781 49.1875 45.210938 49.230469 C 46.90625 51.003906 48.292969 53.207031 49.429688 55.945312 C 51.09375 59.914062 51.957031 64.09375 52.035156 68.640625 C 52.042969 68.914062 52.050781 69.191406 52.050781 69.464844 C 52.109375 74.5 51.246094 79.082031 49.4375 83.417969 C 48.304688 86.136719 46.925781 88.328125 45.210938 90.128906 C 45.171875 90.183594 45.125 90.230469 45.078125 90.277344 C 43.980469 91.574219 42.59375 92.609375 40.824219 93.453125 Z M 44.453125 93.378906 C 43.910156 93.632812 43.328125 93.839844 42.660156 94 C 44.019531 93.210938 45.144531 92.273438 46.070312 91.1875 C 47.9375 89.265625 49.4375 86.894531 50.675781 83.941406 C 52.550781 79.4375 53.449219 74.6875 53.390625 69.464844 C 53.390625 69.175781 53.382812 68.886719 53.375 68.601562 C 53.28125 63.890625 52.386719 59.558594 50.671875 55.4375 C 49.429688 52.476562 47.925781 50.105469 46.09375 48.222656 C 45.152344 47.113281 44.019531 46.175781 42.660156 45.371094 C 43.328125 45.53125 43.90625 45.738281 44.449219 45.992188 C 46.210938 46.832031 47.601562 47.867188 48.734375 49.195312 C 49.664062 50.152344 50.488281 51.238281 51.246094 52.445312 C 51.292969 52.515625 51.339844 52.597656 51.378906 52.671875 C 51.40625 52.710938 51.425781 52.75 51.453125 52.792969 C 51.6875 53.195312 51.921875 53.601562 52.144531 54.039062 C 52.144531 54.039062 52.144531 54.058594 52.15625 54.066406 C 52.480469 54.6875 52.78125 55.335938 53.0625 56.027344 C 53.925781 58.097656 54.570312 60.214844 55.003906 62.417969 C 55.070312 62.734375 55.125 63.046875 55.179688 63.367188 C 55.21875 63.582031 55.253906 63.796875 55.277344 64.011719 C 55.320312 64.273438 55.359375 64.542969 55.386719 64.808594 C 55.425781 65.078125 55.453125 65.34375 55.480469 65.613281 C 55.507812 65.886719 55.527344 66.15625 55.554688 66.429688 C 55.59375 66.898438 55.628906 67.367188 55.640625 67.84375 C 55.648438 68.039062 55.652344 68.226562 55.660156 68.417969 C 55.675781 68.835938 55.679688 69.242188 55.679688 69.644531 C 55.679688 70.082031 55.679688 70.507812 55.660156 70.9375 C 55.613281 73.007812 55.394531 74.992188 55.011719 76.917969 C 54.996094 77 54.984375 77.082031 54.964844 77.167969 C 54.910156 77.4375 54.851562 77.695312 54.789062 77.957031 C 54.734375 78.21875 54.675781 78.488281 54.601562 78.75 C 54.199219 80.316406 53.691406 81.851562 53.0625 83.34375 C 52.785156 84 52.5 84.621094 52.199219 85.226562 C 52.175781 85.265625 52.15625 85.304688 52.136719 85.351562 C 52.0625 85.492188 51.988281 85.628906 51.917969 85.761719 C 51.816406 85.949219 51.714844 86.144531 51.609375 86.324219 C 51.554688 86.417969 51.5 86.511719 51.449219 86.605469 C 51.339844 86.78125 51.234375 86.953125 51.125 87.128906 C 50.402344 88.261719 49.605469 89.285156 48.714844 90.203125 C 47.609375 91.503906 46.214844 92.535156 44.453125 93.378906 Z M 59.117188 72.839844 C 58.789062 76.960938 57.871094 80.625 56.308594 84.054688 C 55.03125 86.867188 53.511719 89.078125 51.648438 90.824219 C 51.453125 91.011719 51.253906 91.1875 51.066406 91.355469 C 50.671875 91.683594 50.367188 91.925781 50.0625 92.136719 C 49.578125 92.488281 49.054688 92.808594 48.511719 93.089844 C 47.984375 93.359375 47.476562 93.578125 46.953125 93.746094 C 46.703125 93.828125 46.464844 93.898438 46.222656 93.960938 C 47.617188 93.15625 48.761719 92.210938 49.707031 91.105469 C 49.71875 91.09375 49.734375 91.074219 49.746094 91.058594 C 50.90625 89.859375 51.917969 88.496094 52.808594 86.925781 C 53.09375 86.417969 53.375 85.890625 53.636719 85.339844 C 53.871094 84.863281 54.085938 84.367188 54.300781 83.859375 C 54.96875 82.257812 55.519531 80.617188 55.941406 78.9375 C 55.957031 78.882812 55.96875 78.828125 55.980469 78.769531 C 56.117188 78.199219 56.242188 77.617188 56.351562 77.035156 C 56.4375 76.589844 56.511719 76.136719 56.578125 75.6875 C 56.589844 75.59375 56.605469 75.507812 56.617188 75.414062 C 56.671875 75.0625 56.710938 74.714844 56.753906 74.359375 C 56.792969 74.054688 56.824219 73.746094 56.847656 73.4375 C 56.917969 72.679688 56.964844 71.910156 56.988281 71.132812 C 56.992188 70.964844 57 70.796875 57 70.636719 C 57.011719 70.269531 57.019531 69.898438 57.019531 69.539062 C 57.019531 69.15625 57.011719 68.769531 57 68.378906 C 56.988281 67.984375 56.972656 67.582031 56.945312 67.179688 C 56.925781 66.839844 56.898438 66.492188 56.867188 66.15625 C 56.851562 65.996094 56.839844 65.839844 56.824219 65.6875 C 56.820312 65.613281 56.8125 65.546875 56.804688 65.472656 C 56.753906 64.917969 56.683594 64.359375 56.605469 63.8125 C 56.523438 63.261719 56.4375 62.71875 56.332031 62.191406 C 56.277344 61.902344 56.214844 61.613281 56.148438 61.332031 C 56.097656 61.085938 56.042969 60.835938 55.976562 60.589844 C 55.546875 58.855469 54.984375 57.167969 54.300781 55.511719 C 53.089844 52.585938 51.589844 50.21875 49.746094 48.316406 L 49.726562 48.296875 C 48.707031 47.097656 47.46875 46.101562 45.96875 45.269531 C 48.019531 45.730469 49.859375 46.742188 51.546875 48.332031 C 53.851562 50.480469 55.632812 53.261719 56.992188 56.832031 C 58.492188 60.789062 59.25 65.058594 59.25 69.542969 C 59.25 70.628906 59.203125 71.730469 59.117188 72.839844 Z M 59.117188 72.839844 "/></g><g style="fill:#194e94;fill-opacity:1;"><g transform="translate(76.622314, 86.384067)"><path style="stroke:none" d="M 22.765625 -9.46875 C 22.765625 -6.1875 21.957031 -3.679688 20.34375 -1.953125 C 18.738281 -0.234375 16.390625 0.625 13.296875 0.625 C 10.203125 0.625 7.757812 -0.234375 5.96875 -1.953125 C 4.1875 -3.679688 3.296875 -6.1875 3.296875 -9.46875 L 3.296875 -11.90625 L 7.078125 -11.90625 L 7.078125 -9.46875 C 7.078125 -7.476562 7.585938 -5.882812 8.609375 -4.6875 C 9.628906 -3.488281 11.191406 -2.890625 13.296875 -2.890625 C 15.398438 -2.890625 16.875 -3.488281 17.71875 -4.6875 C 18.5625 -5.882812 18.984375 -7.476562 18.984375 -9.46875 L 18.984375 -28.03125 L 15.734375 -28.03125 L 15.734375 -31.546875 L 25.46875 -31.546875 L 25.46875 -28.03125 L 22.765625 -28.03125 Z M 22.765625 -9.46875 "/></g></g><g style="fill:#194e94;fill-opacity:1;"><g transform="translate(101.098948, 86.384067)"><path style="stroke:none" d="M 19.875 -22.359375 L 23.390625 -22.359375 L 23.390625 0 L 19.875 0 L 19.875 -4.0625 L 19.34375 -4.0625 C 18.613281 -2.613281 17.660156 -1.46875 16.484375 -0.625 C 15.316406 0.207031 13.832031 0.625 12.03125 0.625 C 10.800781 0.625 9.664062 0.421875 8.625 0.015625 C 7.59375 -0.390625 6.707031 -0.992188 5.96875 -1.796875 C 5.238281 -2.609375 4.671875 -3.613281 4.265625 -4.8125 C 3.859375 -6.019531 3.65625 -7.421875 3.65625 -9.015625 L 3.65625 -22.359375 L 7.171875 -22.359375 L 7.171875 -9.46875 C 7.171875 -7.125 7.648438 -5.410156 8.609375 -4.328125 C 9.566406 -3.242188 11.039062 -2.703125 13.03125 -2.703125 C 15.164062 -2.703125 16.835938 -3.429688 18.046875 -4.890625 C 19.265625 -6.347656 19.875 -8.296875 19.875 -10.734375 Z M 19.875 -22.359375 "/></g></g><g style="fill:#194e94;fill-opacity:1;"><g transform="translate(125.575582, 86.384067)"><path style="stroke:none" d="M 7.4375 0 L 3.921875 0 L 3.921875 -22.359375 L 7.4375 -22.359375 L 7.4375 -18.578125 L 7.984375 -18.578125 C 9.359375 -21.515625 11.757812 -22.984375 15.1875 -22.984375 C 17.769531 -22.984375 19.828125 -22.179688 21.359375 -20.578125 C 22.898438 -18.972656 23.671875 -16.5625 23.671875 -13.34375 L 23.671875 0 L 20.15625 0 L 20.15625 -12.625 C 20.15625 -14.96875 19.628906 -16.722656 18.578125 -17.890625 C 17.523438 -19.066406 16.097656 -19.65625 14.296875 -19.65625 C 12.160156 -19.65625 10.484375 -18.925781 9.265625 -17.46875 C 8.046875 -16.007812 7.4375 -14.0625 7.4375 -11.625 Z M 7.4375 0 "/></g></g><g style="fill:#194e94;fill-opacity:1;"><g transform="translate(150.052216, 86.384067)"><path style="stroke:none" d="M 25.015625 -10.90625 C 25.015625 -9.039062 24.707031 -7.394531 24.09375 -5.96875 C 23.476562 -4.539062 22.660156 -3.335938 21.640625 -2.359375 C 20.617188 -1.390625 19.421875 -0.648438 18.046875 -0.140625 C 16.679688 0.367188 15.265625 0.625 13.796875 0.625 C 12.296875 0.625 10.867188 0.367188 9.515625 -0.140625 C 8.160156 -0.648438 6.972656 -1.390625 5.953125 -2.359375 C 4.929688 -3.335938 4.109375 -4.539062 3.484375 -5.96875 C 2.867188 -7.394531 2.5625 -9.039062 2.5625 -10.90625 L 2.5625 -11.453125 C 2.5625 -13.285156 2.867188 -14.914062 3.484375 -16.34375 C 4.109375 -17.769531 4.9375 -18.976562 5.96875 -19.96875 C 7.007812 -20.957031 8.203125 -21.707031 9.546875 -22.21875 C 10.898438 -22.726562 12.316406 -22.984375 13.796875 -22.984375 C 15.265625 -22.984375 16.675781 -22.726562 18.03125 -22.21875 C 19.382812 -21.707031 20.578125 -20.957031 21.609375 -19.96875 C 22.648438 -18.976562 23.476562 -17.769531 24.09375 -16.34375 C 24.707031 -14.914062 25.015625 -13.285156 25.015625 -11.453125 Z M 13.796875 -2.703125 C 14.878906 -2.703125 15.878906 -2.890625 16.796875 -3.265625 C 17.710938 -3.640625 18.515625 -4.1875 19.203125 -4.90625 C 19.890625 -5.632812 20.425781 -6.5 20.8125 -7.5 C 21.207031 -8.507812 21.40625 -9.644531 21.40625 -10.90625 L 21.40625 -11.453125 C 21.40625 -12.648438 21.207031 -13.75 20.8125 -14.75 C 20.425781 -15.757812 19.890625 -16.625 19.203125 -17.34375 C 18.515625 -18.070312 17.703125 -18.640625 16.765625 -19.046875 C 15.835938 -19.453125 14.847656 -19.65625 13.796875 -19.65625 C 12.742188 -19.65625 11.75 -19.453125 10.8125 -19.046875 C 9.882812 -18.640625 9.070312 -18.070312 8.375 -17.34375 C 7.6875 -16.625 7.144531 -15.757812 6.75 -14.75 C 6.363281 -13.75 6.171875 -12.648438 6.171875 -11.453125 L 6.171875 -10.90625 C 6.171875 -9.644531 6.363281 -8.507812 6.75 -7.5 C 7.144531 -6.5 7.6875 -5.632812 8.375 -4.90625 C 9.070312 -4.1875 9.878906 -3.640625 10.796875 -3.265625 C 11.710938 -2.890625 12.710938 -2.703125 13.796875 -2.703125 Z M 13.796875 -2.703125 "/></g></g><g style="fill:#194e94;fill-opacity:1;"><g transform="translate(174.52885, 86.384067)"><path style="stroke:none" d=""/></g></g><g style="fill:#194e94;fill-opacity:1;"><g transform="translate(199.005483, 86.384067)"><path style="stroke:none" d="M 20.5625 -7.84375 L 7.03125 -7.84375 L 4.734375 0 L 0.671875 0 L 10.234375 -31.546875 L 17.359375 -31.546875 L 26.90625 0 L 22.859375 0 Z M 13.515625 -29.9375 L 8.0625 -11.359375 L 19.515625 -11.359375 L 14.0625 -29.9375 Z M 13.515625 -29.9375 "/></g></g><g style="fill:#194e94;fill-opacity:1;"><g transform="translate(223.482117, 86.384067)"><path style="stroke:none" d="M 3.78125 -31.546875 L 23.796875 -31.546875 L 23.796875 -28.03125 L 15.6875 -28.03125 L 15.6875 -3.515625 L 23.796875 -3.515625 L 23.796875 0 L 3.78125 0 L 3.78125 -3.515625 L 11.90625 -3.515625 L 11.90625 -28.03125 L 3.78125 -28.03125 Z M 3.78125 -31.546875 "/></g></g></g></svg>