<svg xmlns="http://www.w3.org/2000/svg" version="1.1" xmlns:xlink="http://www.w3.org/1999/xlink" width="1000" height="1000"><style>
    #light-icon {
      display: inline;
    }
    #dark-icon {
      display: none;
    }

    @media (prefers-color-scheme: dark) {
      #light-icon {
        display: none;
      }
      #dark-icon {
        display: inline;
      }
    }
  </style><g id="light-icon"><svg xmlns="http://www.w3.org/2000/svg" version="1.1" xmlns:xlink="http://www.w3.org/1999/xlink" width="1000" height="1000"><g clip-path="url(#SvgjsClipPath1019)"><rect width="1000" height="1000" fill="#ffffff"></rect><g transform="matrix(7,0,0,7,150,150)"><svg xmlns="http://www.w3.org/2000/svg" version="1.1" xmlns:xlink="http://www.w3.org/1999/xlink" width="100" height="100"><svg xmlns="http://www.w3.org/2000/svg" xmlns:xlink="http://www.w3.org/1999/xlink" width="100" zoomAndPan="magnify" viewBox="0 0 75 74.999997" height="100" preserveAspectRatio="xMidYMid meet" version="1.2"><defs><clipPath id="4ef07ef9cd"><path d="M 4.621094 4.195312 L 70.621094 4.195312 L 70.621094 70.945312 L 4.621094 70.945312 Z M 4.621094 4.195312 "></path></clipPath><clipPath id="SvgjsClipPath1019"><rect width="1000" height="1000" x="0" y="0" rx="350" ry="350"></rect></clipPath></defs><g id="4653644fea"><path style=" stroke:none;fill-rule:nonzero;fill:#194e94;fill-opacity:1;" d="M 36.289062 10.773438 C 36.289062 10.773438 36.304688 10.789062 36.304688 10.800781 L 36.3125 10.800781 C 36.3125 10.800781 36.296875 10.773438 36.289062 10.773438 Z M 32.671875 7.976562 C 32.671875 7.976562 32.59375 7.933594 32.550781 7.914062 C 32.585938 7.941406 32.621094 7.957031 32.660156 7.984375 C 32.695312 8 32.738281 8.019531 32.773438 8.035156 C 32.738281 8.019531 32.703125 7.992188 32.671875 7.976562 Z M 40.917969 6.132812 Z M 44.179688 6.125 L 44.1875 6.125 C 44.1875 6.125 44.203125 6.132812 44.210938 6.125 Z M 44.179688 6.125 "></path><path style=" stroke:none;fill-rule:nonzero;fill:#194e94;fill-opacity:1;" d="M 44.210938 6.125 C 44.210938 6.125 44.195312 6.132812 44.1875 6.132812 L 44.210938 6.132812 Z M 44.210938 6.125 "></path><path style=" stroke:none;fill-rule:nonzero;fill:#194e94;fill-opacity:1;" d="M 41.203125 6.132812 L 40.972656 6.140625 L 40.917969 6.132812 Z M 41.203125 6.132812 "></path><path style=" stroke:none;fill-rule:nonzero;fill:#194e94;fill-opacity:1;" d="M 41.203125 6.132812 L 40.972656 6.140625 L 40.917969 6.132812 Z M 41.203125 6.132812 "></path><path style=" stroke:none;fill-rule:nonzero;fill:#194e94;fill-opacity:1;" d="M 44.210938 6.125 C 44.210938 6.125 44.195312 6.132812 44.1875 6.132812 L 44.210938 6.132812 Z M 44.210938 6.125 "></path><path style=" stroke:none;fill-rule:nonzero;fill:#194e94;fill-opacity:1;" d="M 10.773438 39.144531 C 10.773438 39.332031 10.78125 39.53125 10.789062 39.71875 C 10.789062 39.75 10.789062 39.785156 10.796875 39.820312 C 10.78125 39.597656 10.773438 39.375 10.773438 39.144531 Z M 10.773438 39.144531 "></path><path style=" stroke:none;fill-rule:nonzero;fill:#194e94;fill-opacity:1;" d="M 32.671875 7.976562 C 32.671875 7.976562 32.660156 7.984375 32.660156 7.984375 C 32.621094 7.957031 32.585938 7.941406 32.550781 7.914062 C 32.59375 7.933594 32.636719 7.949219 32.671875 7.976562 Z M 32.671875 7.976562 "></path><g clip-rule="nonzero" clip-path="url(#4ef07ef9cd)"><path style=" stroke:none;fill-rule:nonzero;fill:#194e94;fill-opacity:1;" d="M 67.363281 20.601562 C 65.53125 15.804688 63.125 12.054688 60.003906 9.136719 C 56.511719 5.875 52.214844 4.351562 47.472656 4.382812 C 40.671875 4.433594 33.875 4.222656 27.082031 4.46875 C 24.6875 4.554688 22.28125 4.792969 20.046875 5.714844 C 17.808594 6.636719 15.898438 8.15625 14.226562 9.859375 C 11.070312 13.085938 8.714844 17.128906 7.019531 22.230469 C 5.074219 28.054688 4.304688 34.335938 4.734375 40.886719 C 5.101562 46.609375 6.3125 51.703125 8.445312 56.4375 C 10.378906 60.753906 12.777344 64.074219 15.773438 66.589844 C 17.699219 68.210938 19.925781 69.464844 22.367188 70.09375 C 25.511719 70.914062 28.890625 70.582031 32.109375 70.582031 L 42.496094 70.582031 C 46.097656 70.582031 50.039062 71 53.511719 69.847656 C 54.246094 69.609375 54.996094 69.292969 55.738281 68.910156 C 56.511719 68.507812 57.253906 68.054688 57.921875 67.5625 C 58.339844 67.273438 58.765625 66.9375 59.320312 66.476562 C 59.59375 66.230469 59.875 65.992188 60.128906 65.746094 C 62.65625 63.371094 64.71875 60.378906 66.441406 56.589844 C 67.46875 54.347656 68.285156 51.976562 68.910156 49.492188 C 70.488281 43.199219 70.757812 36.5 69.8125 30.085938 C 69.335938 26.851562 68.523438 23.664062 67.355469 20.609375 Z M 44.210938 6.125 C 44.210938 6.125 44.195312 6.132812 44.1875 6.132812 L 44.210938 6.132812 Z M 41.203125 6.125 Z M 35.929688 7.292969 C 38.179688 8.367188 39.945312 9.691406 41.390625 11.378906 C 41.429688 11.421875 41.484375 11.472656 41.523438 11.523438 C 43.683594 13.785156 45.449219 16.589844 46.898438 20.082031 C 49.015625 25.128906 50.117188 30.453125 50.21875 36.238281 C 50.226562 36.59375 50.234375 36.945312 50.234375 37.285156 C 50.3125 43.710938 49.210938 49.542969 46.90625 55.0625 C 45.464844 58.527344 43.710938 61.316406 41.523438 63.613281 C 41.472656 63.679688 41.414062 63.738281 41.355469 63.800781 C 40.910156 64.320312 40.433594 64.804688 39.9375 65.242188 C 39.460938 64.839844 38.992188 64.429688 38.710938 64.140625 C 40.570312 62.042969 42.078125 59.664062 43.445312 56.695312 C 45.6875 51.769531 46.941406 46.535156 47.292969 40.65625 C 47.753906 32.894531 46.652344 25.949219 43.929688 19.421875 C 42.378906 15.679688 40.460938 12.660156 38.105469 10.226562 C 37.925781 10.023438 37.746094 9.816406 37.558594 9.621094 C 37.378906 9.425781 37.183594 9.238281 36.988281 9.050781 C 36.824219 8.886719 36.65625 8.734375 36.476562 8.582031 C 36.433594 8.539062 36.390625 8.503906 36.347656 8.46875 C 36.152344 8.300781 35.953125 8.136719 35.742188 7.976562 C 35.589844 7.847656 35.425781 7.726562 35.253906 7.609375 C 35.066406 7.472656 34.878906 7.335938 34.683594 7.207031 C 34.417969 7.027344 34.144531 6.859375 33.875 6.695312 C 33.738281 6.609375 33.617188 6.535156 33.472656 6.457031 C 34.402344 6.671875 35.195312 6.941406 35.929688 7.292969 Z M 37.515625 62.894531 C 34.726562 59.601562 32.542969 55.492188 31.144531 50.851562 C 29.855469 46.542969 29.222656 41.917969 29.265625 37.117188 C 29.300781 31.871094 30.136719 26.878906 31.757812 22.265625 C 33.183594 18.21875 35.050781 14.875 37.472656 12.070312 C 39.433594 14.253906 41.03125 16.882812 42.351562 20.082031 C 44.980469 26.359375 46.039062 33.054688 45.585938 40.554688 C 45.253906 46.21875 44.042969 51.257812 41.890625 55.976562 C 40.628906 58.742188 39.230469 60.957031 37.515625 62.894531 Z M 16.871094 65.273438 C 14.082031 62.929688 11.832031 59.808594 10.003906 55.730469 C 7.957031 51.183594 6.789062 46.285156 6.429688 40.765625 C 6.019531 34.4375 6.761719 28.371094 8.632812 22.757812 C 10.242188 17.914062 12.46875 14.082031 15.4375 11.046875 C 17.664062 8.761719 20.019531 7.285156 22.578125 6.59375 C 20.90625 7.589844 19.507812 8.75 18.347656 10.109375 C 18.332031 10.125 18.3125 10.152344 18.296875 10.167969 C 16.828125 11.695312 15.542969 13.433594 14.398438 15.429688 C 13.894531 16.292969 13.425781 17.207031 12.992188 18.160156 C 11.863281 20.632812 10.984375 23.183594 10.347656 25.863281 C 10.269531 26.179688 10.191406 26.496094 10.125 26.820312 C 10.054688 27.160156 9.980469 27.492188 9.917969 27.835938 C 9.867188 28.117188 9.816406 28.398438 9.765625 28.6875 C 9.765625 28.6875 9.757812 28.738281 9.757812 28.765625 L 9.707031 29.070312 C 9.707031 29.070312 9.699219 29.132812 9.6875 29.15625 C 9.671875 29.292969 9.648438 29.421875 9.628906 29.558594 C 9.585938 29.839844 9.542969 30.121094 9.511719 30.402344 C 9.492188 30.496094 9.484375 30.597656 9.46875 30.691406 C 9.457031 30.777344 9.449219 30.863281 9.433594 30.949219 C 9.417969 31.050781 9.40625 31.144531 9.398438 31.246094 C 9.347656 31.648438 9.3125 32.058594 9.269531 32.464844 L 9.269531 32.484375 C 9.269531 32.484375 9.269531 32.519531 9.269531 32.535156 L 9.269531 32.578125 C 9.21875 33.113281 9.175781 33.652344 9.144531 34.199219 C 9.117188 34.660156 9.09375 35.121094 9.074219 35.582031 L 9.074219 35.707031 C 9.074219 35.707031 9.066406 35.777344 9.066406 35.8125 L 9.066406 35.980469 C 9.050781 36.457031 9.039062 36.929688 9.039062 37.390625 L 9.039062 37.578125 C 9.039062 38.046875 9.050781 38.507812 9.066406 38.96875 L 9.066406 39 C 9.101562 40.484375 9.203125 41.9375 9.375 43.359375 C 9.417969 43.769531 9.46875 44.179688 9.527344 44.582031 C 9.636719 45.339844 9.757812 46.082031 9.902344 46.824219 C 10.484375 49.792969 11.351562 52.648438 12.511719 55.429688 C 14.058594 59.167969 15.960938 62.179688 18.304688 64.601562 L 18.332031 64.628906 C 19.652344 66.179688 21.257812 67.46875 23.210938 68.527344 C 20.949219 68.011719 18.859375 66.9375 16.878906 65.273438 Z M 25.042969 67.5625 C 22.800781 66.488281 21.027344 65.171875 19.585938 63.484375 C 17.351562 61.171875 15.550781 58.324219 14.074219 54.773438 C 12.980469 52.164062 12.164062 49.476562 11.609375 46.695312 C 11.589844 46.628906 11.574219 46.550781 11.566406 46.480469 C 11.386719 45.535156 11.234375 44.570312 11.113281 43.597656 C 11.0625 43.214844 11.019531 42.839844 10.984375 42.457031 C 10.96875 42.320312 10.960938 42.191406 10.953125 42.054688 C 10.910156 41.535156 10.867188 41.015625 10.832031 40.476562 C 10.824219 40.390625 10.824219 40.316406 10.816406 40.230469 C 10.816406 40.09375 10.796875 39.949219 10.796875 39.8125 C 10.789062 39.777344 10.789062 39.742188 10.789062 39.710938 C 10.78125 39.519531 10.773438 39.324219 10.773438 39.136719 C 10.765625 39.070312 10.765625 39.007812 10.765625 38.941406 C 10.746094 38.429688 10.738281 37.910156 10.738281 37.390625 C 10.738281 37.117188 10.746094 36.851562 10.746094 36.578125 C 10.746094 36.441406 10.746094 36.3125 10.753906 36.175781 C 10.746094 36.039062 10.753906 35.914062 10.753906 35.777344 C 10.78125 34.746094 10.832031 33.730469 10.933594 32.722656 C 10.953125 32.390625 10.996094 32.046875 11.046875 31.722656 C 11.046875 31.648438 11.0625 31.570312 11.070312 31.492188 C 11.097656 31.289062 11.121094 31.09375 11.148438 30.886719 L 11.148438 30.871094 C 11.183594 30.539062 11.226562 30.207031 11.292969 29.882812 C 11.328125 29.574219 11.378906 29.269531 11.4375 28.960938 C 11.488281 28.695312 11.53125 28.441406 11.582031 28.175781 C 11.644531 27.851562 11.703125 27.535156 11.777344 27.21875 C 11.847656 26.914062 11.914062 26.597656 11.992188 26.289062 C 12.519531 24.140625 13.203125 22.050781 14.066406 19.996094 C 14.382812 19.21875 14.707031 18.484375 15.0625 17.785156 C 14.96875 17.964844 14.894531 18.144531 14.800781 18.324219 C 14.917969 18.074219 15.039062 17.828125 15.175781 17.589844 C 15.199219 17.53125 15.234375 17.460938 15.269531 17.402344 C 15.335938 17.257812 15.414062 17.113281 15.5 16.964844 C 15.574219 16.820312 15.652344 16.683594 15.730469 16.539062 C 15.992188 16.070312 16.257812 15.609375 16.53125 15.175781 C 16.710938 14.894531 16.898438 14.628906 17.078125 14.355469 C 17.246094 14.117188 17.417969 13.886719 17.589844 13.648438 C 18.21875 12.804688 18.886719 11.992188 19.601562 11.25 C 21.007812 9.605469 22.785156 8.28125 25.027344 7.214844 C 25.71875 6.890625 26.460938 6.628906 27.3125 6.414062 C 25.582031 7.429688 24.148438 8.625 22.972656 10.003906 C 20.601562 12.453125 18.679688 15.472656 17.109375 19.234375 C 14.714844 24.960938 13.570312 31.015625 13.648438 37.660156 C 13.648438 38.0625 13.65625 38.464844 13.664062 38.863281 C 13.792969 44.828125 14.933594 50.320312 17.121094 55.535156 C 18.6875 59.296875 20.609375 62.316406 22.945312 64.722656 C 24.148438 66.144531 25.589844 67.339844 27.320312 68.355469 C 26.46875 68.148438 25.726562 67.886719 25.035156 67.5625 Z M 29.667969 67.65625 C 27.414062 66.589844 25.648438 65.265625 24.214844 63.578125 C 24.164062 63.527344 24.121094 63.476562 24.070312 63.425781 C 21.914062 61.164062 20.15625 58.367188 18.699219 54.875 C 16.597656 49.851562 15.507812 44.570312 15.378906 38.820312 C 15.371094 38.429688 15.363281 38.046875 15.363281 37.660156 C 15.292969 31.246094 16.394531 25.410156 18.6875 19.890625 C 20.140625 16.421875 21.886719 13.640625 24.070312 11.335938 C 24.121094 11.277344 24.183594 11.207031 24.242188 11.148438 C 25.640625 9.503906 27.40625 8.179688 29.667969 7.113281 C 29.863281 7.011719 30.070312 6.925781 30.273438 6.847656 L 30.28125 6.847656 C 30.488281 6.917969 30.691406 6.996094 30.878906 7.070312 C 29.609375 7.933594 28.5 8.921875 27.578125 10.003906 C 25.207031 12.453125 23.285156 15.472656 21.71875 19.234375 C 19.320312 24.960938 18.175781 31.015625 18.253906 37.660156 C 18.253906 38.0625 18.261719 38.464844 18.269531 38.863281 C 18.398438 44.828125 19.542969 50.320312 21.726562 55.535156 C 23.296875 59.304688 25.214844 62.324219 27.550781 64.722656 C 28.816406 66.214844 30.339844 67.460938 32.203125 68.515625 C 31.246094 68.296875 30.417969 68.023438 29.667969 67.65625 Z M 34.265625 67.65625 C 32.015625 66.589844 30.246094 65.265625 28.816406 63.578125 C 28.761719 63.527344 28.710938 63.476562 28.667969 63.425781 C 26.511719 61.164062 24.753906 58.367188 23.296875 54.875 C 21.195312 49.851562 20.105469 44.570312 19.976562 38.820312 C 19.96875 38.429688 19.960938 38.046875 19.960938 37.652344 C 19.890625 31.238281 20.992188 25.402344 23.285156 19.890625 C 24.730469 16.429688 26.484375 13.640625 28.667969 11.335938 C 28.722656 11.277344 28.78125 11.207031 28.839844 11.148438 C 29.882812 9.921875 31.167969 8.855469 32.660156 7.976562 C 32.621094 7.949219 32.585938 7.933594 32.550781 7.90625 C 32.59375 7.925781 32.636719 7.941406 32.671875 7.964844 C 32.703125 7.984375 32.738281 8.007812 32.773438 8.027344 C 32.824219 8.050781 32.875 8.078125 32.917969 8.113281 C 33.164062 8.257812 33.402344 8.402344 33.632812 8.5625 C 33.132812 9.007812 32.652344 9.503906 32.21875 10.003906 C 29.847656 12.453125 27.925781 15.472656 26.359375 19.234375 C 23.960938 24.960938 22.816406 31.015625 22.894531 37.660156 C 22.894531 38.0625 22.902344 38.464844 22.910156 38.863281 C 23.039062 44.828125 24.183594 50.320312 26.367188 55.535156 C 27.9375 59.296875 29.855469 62.316406 32.191406 64.722656 C 33.464844 66.222656 35.007812 67.476562 36.875 68.535156 C 35.886719 68.3125 35.035156 68.03125 34.265625 67.65625 Z M 38.90625 67.65625 C 36.664062 66.589844 34.886719 65.265625 33.457031 63.578125 C 33.402344 63.527344 33.363281 63.476562 33.308594 63.425781 C 31.152344 61.164062 29.394531 58.367188 27.9375 54.875 C 25.835938 49.851562 24.746094 44.570312 24.617188 38.820312 C 24.609375 38.429688 24.601562 38.046875 24.601562 37.660156 C 24.601562 36.59375 24.636719 35.503906 24.703125 34.402344 C 25.035156 28.730469 26.246094 23.6875 28.40625 18.972656 C 29.734375 16.054688 31.246094 13.613281 33.175781 11.523438 L 33.308594 11.34375 C 33.363281 11.277344 33.421875 11.21875 33.480469 11.15625 C 33.96875 10.585938 34.488281 10.066406 35.035156 9.597656 C 35.050781 9.597656 35.058594 9.613281 35.078125 9.628906 C 35.273438 9.792969 35.46875 9.964844 35.65625 10.140625 C 35.671875 10.140625 35.699219 10.175781 35.714844 10.191406 C 35.914062 10.371094 36.109375 10.558594 36.289062 10.765625 C 36.296875 10.765625 36.304688 10.765625 36.3125 10.78125 L 36.304688 10.78125 C 33.695312 13.792969 31.671875 17.367188 30.144531 21.699219 C 28.464844 26.496094 27.59375 31.671875 27.5625 37.097656 C 27.519531 42.082031 28.175781 46.867188 29.515625 51.335938 C 31.253906 57.128906 34.179688 62.171875 37.96875 65.898438 C 38.445312 66.359375 38.890625 66.75 39.324219 67.09375 C 39.988281 67.613281 40.707031 68.089844 41.464844 68.515625 C 40.492188 68.304688 39.664062 68.023438 38.90625 67.65625 Z M 42.242188 66.949219 C 41.976562 66.792969 41.722656 66.625 41.472656 66.453125 C 41.421875 66.417969 41.355469 66.375 41.285156 66.324219 C 41.765625 65.898438 42.207031 65.429688 42.617188 64.949219 C 44.988281 62.503906 46.90625 59.484375 48.488281 55.722656 C 50.875 49.988281 52.019531 43.933594 51.941406 37.285156 C 51.941406 36.917969 51.933594 36.554688 51.925781 36.1875 C 51.804688 30.1875 50.660156 24.667969 48.476562 19.421875 C 46.898438 15.652344 44.980469 12.632812 42.652344 10.234375 C 41.378906 8.734375 39.84375 7.480469 37.96875 6.429688 C 38.957031 6.644531 39.800781 6.925781 40.570312 7.292969 C 42.820312 8.367188 44.585938 9.691406 46.03125 11.378906 C 46.070312 11.421875 46.125 11.472656 46.167969 11.523438 C 48.324219 13.785156 50.089844 16.589844 51.539062 20.082031 C 52.128906 21.488281 52.640625 22.921875 53.066406 24.371094 C 53.246094 24.949219 53.398438 25.53125 53.546875 26.121094 C 53.699219 26.707031 53.828125 27.304688 53.945312 27.902344 C 54.015625 28.242188 54.082031 28.585938 54.140625 28.925781 C 54.414062 30.394531 54.59375 31.886719 54.714844 33.40625 C 54.738281 33.71875 54.765625 34.035156 54.773438 34.351562 C 54.789062 34.597656 54.808594 34.855469 54.816406 35.101562 C 54.832031 35.359375 54.839844 35.613281 54.851562 35.871094 C 54.867188 36.347656 54.875 36.824219 54.875 37.296875 C 54.953125 43.710938 53.851562 49.542969 51.550781 55.0625 C 50.105469 58.527344 48.351562 61.316406 46.167969 63.613281 C 46.113281 63.679688 46.054688 63.738281 45.996094 63.800781 C 44.945312 65.027344 43.71875 66.070312 42.242188 66.949219 Z M 45.175781 67.84375 C 44.996094 67.929688 44.816406 68.011719 44.628906 68.082031 C 44.628906 68.082031 44.621094 68.082031 44.613281 68.082031 L 44.605469 68.082031 C 44.511719 68.039062 44.410156 68.003906 44.316406 67.960938 C 44.210938 67.917969 44.109375 67.878906 44.007812 67.835938 C 45.253906 66.980469 46.355469 66.007812 47.257812 64.941406 C 49.628906 62.496094 51.550781 59.472656 53.128906 55.710938 C 55.515625 49.980469 56.660156 43.933594 56.582031 37.277344 C 56.582031 36.910156 56.574219 36.542969 56.566406 36.175781 C 56.445312 30.179688 55.300781 24.660156 53.117188 19.414062 C 51.539062 15.644531 49.621094 12.625 47.292969 10.226562 C 46.03125 8.734375 44.503906 7.488281 42.644531 6.441406 C 43.597656 6.652344 44.417969 6.925781 45.167969 7.285156 C 47.421875 8.359375 49.1875 9.679688 50.628906 11.371094 C 50.671875 11.414062 50.722656 11.464844 50.765625 11.515625 C 52.921875 13.777344 54.6875 16.582031 56.136719 20.070312 C 58.253906 25.121094 59.355469 30.445312 59.457031 36.238281 C 59.464844 36.585938 59.472656 36.9375 59.472656 37.285156 C 59.550781 43.703125 58.449219 49.535156 56.148438 55.054688 C 54.707031 58.519531 52.949219 61.308594 50.765625 63.601562 C 50.710938 63.671875 50.652344 63.730469 50.59375 63.789062 C 49.195312 65.445312 47.429688 66.757812 45.175781 67.835938 Z M 49.800781 67.742188 C 49.109375 68.066406 48.367188 68.328125 47.515625 68.535156 C 49.246094 67.527344 50.679688 66.332031 51.855469 64.949219 C 54.234375 62.503906 56.148438 59.484375 57.726562 55.722656 C 60.113281 49.988281 61.257812 43.941406 61.179688 37.285156 C 61.179688 36.917969 61.171875 36.554688 61.164062 36.1875 C 61.042969 30.1875 59.898438 24.667969 57.714844 19.421875 C 56.136719 15.652344 54.21875 12.632812 51.890625 10.234375 C 50.6875 8.820312 49.246094 7.625 47.515625 6.601562 C 48.367188 6.804688 49.101562 7.070312 49.792969 7.394531 C 52.035156 8.460938 53.808594 9.785156 55.25 11.472656 C 56.4375 12.691406 57.484375 14.074219 58.449219 15.609375 C 58.511719 15.703125 58.570312 15.804688 58.621094 15.898438 C 58.65625 15.953125 58.679688 16.003906 58.714844 16.054688 C 59.011719 16.566406 59.3125 17.085938 59.59375 17.640625 C 59.59375 17.640625 59.59375 17.667969 59.609375 17.675781 C 60.019531 18.46875 60.402344 19.296875 60.761719 20.175781 C 61.863281 22.808594 62.679688 25.503906 63.234375 28.3125 C 63.320312 28.714844 63.390625 29.113281 63.457031 29.523438 C 63.507812 29.796875 63.550781 30.070312 63.585938 30.34375 C 63.636719 30.675781 63.6875 31.015625 63.722656 31.359375 C 63.773438 31.699219 63.808594 32.039062 63.839844 32.382812 C 63.875 32.730469 63.902344 33.074219 63.933594 33.421875 C 63.988281 34.019531 64.027344 34.617188 64.046875 35.222656 C 64.054688 35.46875 64.0625 35.707031 64.070312 35.957031 C 64.089844 36.484375 64.097656 37.003906 64.097656 37.515625 C 64.097656 38.070312 64.097656 38.617188 64.070312 39.164062 C 64.011719 41.800781 63.730469 44.324219 63.246094 46.78125 C 63.226562 46.882812 63.210938 46.984375 63.183594 47.097656 C 63.117188 47.4375 63.039062 47.769531 62.960938 48.101562 C 62.894531 48.4375 62.816406 48.777344 62.722656 49.109375 C 62.210938 51.105469 61.5625 53.058594 60.761719 54.960938 C 60.414062 55.796875 60.046875 56.589844 59.660156 57.359375 C 59.636719 57.410156 59.609375 57.460938 59.585938 57.519531 C 59.492188 57.699219 59.398438 57.871094 59.304688 58.042969 C 59.175781 58.28125 59.046875 58.527344 58.910156 58.757812 C 58.84375 58.878906 58.773438 58.996094 58.707031 59.117188 C 58.570312 59.339844 58.433594 59.558594 58.296875 59.78125 C 57.375 61.222656 56.359375 62.527344 55.226562 63.695312 C 53.816406 65.351562 52.042969 66.664062 49.800781 67.742188 Z M 68.472656 41.585938 C 68.054688 46.832031 66.886719 51.5 64.898438 55.867188 C 63.269531 59.449219 61.332031 62.265625 58.960938 64.492188 C 58.714844 64.730469 58.457031 64.949219 58.21875 65.164062 C 57.714844 65.582031 57.332031 65.890625 56.941406 66.164062 C 56.324219 66.605469 55.660156 67.015625 54.96875 67.375 C 54.296875 67.714844 53.648438 67.996094 52.980469 68.210938 C 52.667969 68.3125 52.359375 68.40625 52.050781 68.484375 C 53.828125 67.460938 55.285156 66.257812 56.488281 64.847656 C 56.503906 64.832031 56.523438 64.804688 56.539062 64.789062 C 58.015625 63.261719 59.304688 61.523438 60.4375 59.527344 C 60.804688 58.878906 61.164062 58.203125 61.496094 57.503906 C 61.792969 56.898438 62.066406 56.265625 62.339844 55.617188 C 63.191406 53.578125 63.894531 51.488281 64.429688 49.347656 C 64.445312 49.28125 64.464844 49.210938 64.480469 49.136719 C 64.652344 48.410156 64.8125 47.667969 64.949219 46.925781 C 65.0625 46.363281 65.15625 45.78125 65.242188 45.210938 C 65.257812 45.09375 65.273438 44.980469 65.292969 44.863281 C 65.359375 44.417969 65.410156 43.972656 65.460938 43.523438 C 65.511719 43.128906 65.554688 42.738281 65.582031 42.34375 C 65.675781 41.382812 65.734375 40.398438 65.761719 39.410156 C 65.769531 39.199219 65.777344 38.984375 65.777344 38.777344 C 65.796875 38.308594 65.804688 37.839844 65.804688 37.378906 C 65.804688 36.894531 65.796875 36.398438 65.777344 35.90625 C 65.761719 35.402344 65.742188 34.890625 65.710938 34.378906 C 65.683594 33.941406 65.648438 33.5 65.605469 33.074219 C 65.589844 32.867188 65.574219 32.671875 65.554688 32.476562 C 65.546875 32.382812 65.539062 32.296875 65.53125 32.203125 C 65.460938 31.496094 65.375 30.785156 65.273438 30.085938 C 65.171875 29.386719 65.0625 28.695312 64.925781 28.023438 C 64.855469 27.65625 64.78125 27.289062 64.695312 26.929688 C 64.625 26.613281 64.558594 26.300781 64.472656 25.984375 C 63.925781 23.773438 63.210938 21.625 62.339844 19.515625 C 60.796875 15.789062 58.886719 12.777344 56.539062 10.355469 L 56.511719 10.328125 C 55.21875 8.800781 53.640625 7.53125 51.726562 6.472656 C 54.339844 7.0625 56.683594 8.351562 58.832031 10.371094 C 61.769531 13.109375 64.039062 16.652344 65.769531 21.199219 C 67.679688 26.238281 68.644531 31.671875 68.644531 37.390625 C 68.644531 38.769531 68.585938 40.167969 68.472656 41.585938 Z M 68.472656 41.585938 "></path></g></g></svg></svg></g></g></svg></g><g id="dark-icon"><svg xmlns="http://www.w3.org/2000/svg" version="1.1" xmlns:xlink="http://www.w3.org/1999/xlink" width="1000" height="1000"><g><g transform="matrix(10,0,0,10,0,0)" style="filter: invert(100%)"><svg xmlns="http://www.w3.org/2000/svg" version="1.1" xmlns:xlink="http://www.w3.org/1999/xlink" width="100" height="100"><svg xmlns="http://www.w3.org/2000/svg" xmlns:xlink="http://www.w3.org/1999/xlink" width="100" zoomAndPan="magnify" viewBox="0 0 75 74.999997" height="100" preserveAspectRatio="xMidYMid meet" version="1.2"><defs><clipPath id="4ef07ef9cd"><path d="M 4.621094 4.195312 L 70.621094 4.195312 L 70.621094 70.945312 L 4.621094 70.945312 Z M 4.621094 4.195312 "></path></clipPath></defs><g id="4653644fea"><path style=" stroke:none;fill-rule:nonzero;fill:#194e94;fill-opacity:1;" d="M 36.289062 10.773438 C 36.289062 10.773438 36.304688 10.789062 36.304688 10.800781 L 36.3125 10.800781 C 36.3125 10.800781 36.296875 10.773438 36.289062 10.773438 Z M 32.671875 7.976562 C 32.671875 7.976562 32.59375 7.933594 32.550781 7.914062 C 32.585938 7.941406 32.621094 7.957031 32.660156 7.984375 C 32.695312 8 32.738281 8.019531 32.773438 8.035156 C 32.738281 8.019531 32.703125 7.992188 32.671875 7.976562 Z M 40.917969 6.132812 Z M 44.179688 6.125 L 44.1875 6.125 C 44.1875 6.125 44.203125 6.132812 44.210938 6.125 Z M 44.179688 6.125 "></path><path style=" stroke:none;fill-rule:nonzero;fill:#194e94;fill-opacity:1;" d="M 44.210938 6.125 C 44.210938 6.125 44.195312 6.132812 44.1875 6.132812 L 44.210938 6.132812 Z M 44.210938 6.125 "></path><path style=" stroke:none;fill-rule:nonzero;fill:#194e94;fill-opacity:1;" d="M 41.203125 6.132812 L 40.972656 6.140625 L 40.917969 6.132812 Z M 41.203125 6.132812 "></path><path style=" stroke:none;fill-rule:nonzero;fill:#194e94;fill-opacity:1;" d="M 41.203125 6.132812 L 40.972656 6.140625 L 40.917969 6.132812 Z M 41.203125 6.132812 "></path><path style=" stroke:none;fill-rule:nonzero;fill:#194e94;fill-opacity:1;" d="M 44.210938 6.125 C 44.210938 6.125 44.195312 6.132812 44.1875 6.132812 L 44.210938 6.132812 Z M 44.210938 6.125 "></path><path style=" stroke:none;fill-rule:nonzero;fill:#194e94;fill-opacity:1;" d="M 10.773438 39.144531 C 10.773438 39.332031 10.78125 39.53125 10.789062 39.71875 C 10.789062 39.75 10.789062 39.785156 10.796875 39.820312 C 10.78125 39.597656 10.773438 39.375 10.773438 39.144531 Z M 10.773438 39.144531 "></path><path style=" stroke:none;fill-rule:nonzero;fill:#194e94;fill-opacity:1;" d="M 32.671875 7.976562 C 32.671875 7.976562 32.660156 7.984375 32.660156 7.984375 C 32.621094 7.957031 32.585938 7.941406 32.550781 7.914062 C 32.59375 7.933594 32.636719 7.949219 32.671875 7.976562 Z M 32.671875 7.976562 "></path><g clip-rule="nonzero" clip-path="url(#4ef07ef9cd)"><path style=" stroke:none;fill-rule:nonzero;fill:#194e94;fill-opacity:1;" d="M 67.363281 20.601562 C 65.53125 15.804688 63.125 12.054688 60.003906 9.136719 C 56.511719 5.875 52.214844 4.351562 47.472656 4.382812 C 40.671875 4.433594 33.875 4.222656 27.082031 4.46875 C 24.6875 4.554688 22.28125 4.792969 20.046875 5.714844 C 17.808594 6.636719 15.898438 8.15625 14.226562 9.859375 C 11.070312 13.085938 8.714844 17.128906 7.019531 22.230469 C 5.074219 28.054688 4.304688 34.335938 4.734375 40.886719 C 5.101562 46.609375 6.3125 51.703125 8.445312 56.4375 C 10.378906 60.753906 12.777344 64.074219 15.773438 66.589844 C 17.699219 68.210938 19.925781 69.464844 22.367188 70.09375 C 25.511719 70.914062 28.890625 70.582031 32.109375 70.582031 L 42.496094 70.582031 C 46.097656 70.582031 50.039062 71 53.511719 69.847656 C 54.246094 69.609375 54.996094 69.292969 55.738281 68.910156 C 56.511719 68.507812 57.253906 68.054688 57.921875 67.5625 C 58.339844 67.273438 58.765625 66.9375 59.320312 66.476562 C 59.59375 66.230469 59.875 65.992188 60.128906 65.746094 C 62.65625 63.371094 64.71875 60.378906 66.441406 56.589844 C 67.46875 54.347656 68.285156 51.976562 68.910156 49.492188 C 70.488281 43.199219 70.757812 36.5 69.8125 30.085938 C 69.335938 26.851562 68.523438 23.664062 67.355469 20.609375 Z M 44.210938 6.125 C 44.210938 6.125 44.195312 6.132812 44.1875 6.132812 L 44.210938 6.132812 Z M 41.203125 6.125 Z M 35.929688 7.292969 C 38.179688 8.367188 39.945312 9.691406 41.390625 11.378906 C 41.429688 11.421875 41.484375 11.472656 41.523438 11.523438 C 43.683594 13.785156 45.449219 16.589844 46.898438 20.082031 C 49.015625 25.128906 50.117188 30.453125 50.21875 36.238281 C 50.226562 36.59375 50.234375 36.945312 50.234375 37.285156 C 50.3125 43.710938 49.210938 49.542969 46.90625 55.0625 C 45.464844 58.527344 43.710938 61.316406 41.523438 63.613281 C 41.472656 63.679688 41.414062 63.738281 41.355469 63.800781 C 40.910156 64.320312 40.433594 64.804688 39.9375 65.242188 C 39.460938 64.839844 38.992188 64.429688 38.710938 64.140625 C 40.570312 62.042969 42.078125 59.664062 43.445312 56.695312 C 45.6875 51.769531 46.941406 46.535156 47.292969 40.65625 C 47.753906 32.894531 46.652344 25.949219 43.929688 19.421875 C 42.378906 15.679688 40.460938 12.660156 38.105469 10.226562 C 37.925781 10.023438 37.746094 9.816406 37.558594 9.621094 C 37.378906 9.425781 37.183594 9.238281 36.988281 9.050781 C 36.824219 8.886719 36.65625 8.734375 36.476562 8.582031 C 36.433594 8.539062 36.390625 8.503906 36.347656 8.46875 C 36.152344 8.300781 35.953125 8.136719 35.742188 7.976562 C 35.589844 7.847656 35.425781 7.726562 35.253906 7.609375 C 35.066406 7.472656 34.878906 7.335938 34.683594 7.207031 C 34.417969 7.027344 34.144531 6.859375 33.875 6.695312 C 33.738281 6.609375 33.617188 6.535156 33.472656 6.457031 C 34.402344 6.671875 35.195312 6.941406 35.929688 7.292969 Z M 37.515625 62.894531 C 34.726562 59.601562 32.542969 55.492188 31.144531 50.851562 C 29.855469 46.542969 29.222656 41.917969 29.265625 37.117188 C 29.300781 31.871094 30.136719 26.878906 31.757812 22.265625 C 33.183594 18.21875 35.050781 14.875 37.472656 12.070312 C 39.433594 14.253906 41.03125 16.882812 42.351562 20.082031 C 44.980469 26.359375 46.039062 33.054688 45.585938 40.554688 C 45.253906 46.21875 44.042969 51.257812 41.890625 55.976562 C 40.628906 58.742188 39.230469 60.957031 37.515625 62.894531 Z M 16.871094 65.273438 C 14.082031 62.929688 11.832031 59.808594 10.003906 55.730469 C 7.957031 51.183594 6.789062 46.285156 6.429688 40.765625 C 6.019531 34.4375 6.761719 28.371094 8.632812 22.757812 C 10.242188 17.914062 12.46875 14.082031 15.4375 11.046875 C 17.664062 8.761719 20.019531 7.285156 22.578125 6.59375 C 20.90625 7.589844 19.507812 8.75 18.347656 10.109375 C 18.332031 10.125 18.3125 10.152344 18.296875 10.167969 C 16.828125 11.695312 15.542969 13.433594 14.398438 15.429688 C 13.894531 16.292969 13.425781 17.207031 12.992188 18.160156 C 11.863281 20.632812 10.984375 23.183594 10.347656 25.863281 C 10.269531 26.179688 10.191406 26.496094 10.125 26.820312 C 10.054688 27.160156 9.980469 27.492188 9.917969 27.835938 C 9.867188 28.117188 9.816406 28.398438 9.765625 28.6875 C 9.765625 28.6875 9.757812 28.738281 9.757812 28.765625 L 9.707031 29.070312 C 9.707031 29.070312 9.699219 29.132812 9.6875 29.15625 C 9.671875 29.292969 9.648438 29.421875 9.628906 29.558594 C 9.585938 29.839844 9.542969 30.121094 9.511719 30.402344 C 9.492188 30.496094 9.484375 30.597656 9.46875 30.691406 C 9.457031 30.777344 9.449219 30.863281 9.433594 30.949219 C 9.417969 31.050781 9.40625 31.144531 9.398438 31.246094 C 9.347656 31.648438 9.3125 32.058594 9.269531 32.464844 L 9.269531 32.484375 C 9.269531 32.484375 9.269531 32.519531 9.269531 32.535156 L 9.269531 32.578125 C 9.21875 33.113281 9.175781 33.652344 9.144531 34.199219 C 9.117188 34.660156 9.09375 35.121094 9.074219 35.582031 L 9.074219 35.707031 C 9.074219 35.707031 9.066406 35.777344 9.066406 35.8125 L 9.066406 35.980469 C 9.050781 36.457031 9.039062 36.929688 9.039062 37.390625 L 9.039062 37.578125 C 9.039062 38.046875 9.050781 38.507812 9.066406 38.96875 L 9.066406 39 C 9.101562 40.484375 9.203125 41.9375 9.375 43.359375 C 9.417969 43.769531 9.46875 44.179688 9.527344 44.582031 C 9.636719 45.339844 9.757812 46.082031 9.902344 46.824219 C 10.484375 49.792969 11.351562 52.648438 12.511719 55.429688 C 14.058594 59.167969 15.960938 62.179688 18.304688 64.601562 L 18.332031 64.628906 C 19.652344 66.179688 21.257812 67.46875 23.210938 68.527344 C 20.949219 68.011719 18.859375 66.9375 16.878906 65.273438 Z M 25.042969 67.5625 C 22.800781 66.488281 21.027344 65.171875 19.585938 63.484375 C 17.351562 61.171875 15.550781 58.324219 14.074219 54.773438 C 12.980469 52.164062 12.164062 49.476562 11.609375 46.695312 C 11.589844 46.628906 11.574219 46.550781 11.566406 46.480469 C 11.386719 45.535156 11.234375 44.570312 11.113281 43.597656 C 11.0625 43.214844 11.019531 42.839844 10.984375 42.457031 C 10.96875 42.320312 10.960938 42.191406 10.953125 42.054688 C 10.910156 41.535156 10.867188 41.015625 10.832031 40.476562 C 10.824219 40.390625 10.824219 40.316406 10.816406 40.230469 C 10.816406 40.09375 10.796875 39.949219 10.796875 39.8125 C 10.789062 39.777344 10.789062 39.742188 10.789062 39.710938 C 10.78125 39.519531 10.773438 39.324219 10.773438 39.136719 C 10.765625 39.070312 10.765625 39.007812 10.765625 38.941406 C 10.746094 38.429688 10.738281 37.910156 10.738281 37.390625 C 10.738281 37.117188 10.746094 36.851562 10.746094 36.578125 C 10.746094 36.441406 10.746094 36.3125 10.753906 36.175781 C 10.746094 36.039062 10.753906 35.914062 10.753906 35.777344 C 10.78125 34.746094 10.832031 33.730469 10.933594 32.722656 C 10.953125 32.390625 10.996094 32.046875 11.046875 31.722656 C 11.046875 31.648438 11.0625 31.570312 11.070312 31.492188 C 11.097656 31.289062 11.121094 31.09375 11.148438 30.886719 L 11.148438 30.871094 C 11.183594 30.539062 11.226562 30.207031 11.292969 29.882812 C 11.328125 29.574219 11.378906 29.269531 11.4375 28.960938 C 11.488281 28.695312 11.53125 28.441406 11.582031 28.175781 C 11.644531 27.851562 11.703125 27.535156 11.777344 27.21875 C 11.847656 26.914062 11.914062 26.597656 11.992188 26.289062 C 12.519531 24.140625 13.203125 22.050781 14.066406 19.996094 C 14.382812 19.21875 14.707031 18.484375 15.0625 17.785156 C 14.96875 17.964844 14.894531 18.144531 14.800781 18.324219 C 14.917969 18.074219 15.039062 17.828125 15.175781 17.589844 C 15.199219 17.53125 15.234375 17.460938 15.269531 17.402344 C 15.335938 17.257812 15.414062 17.113281 15.5 16.964844 C 15.574219 16.820312 15.652344 16.683594 15.730469 16.539062 C 15.992188 16.070312 16.257812 15.609375 16.53125 15.175781 C 16.710938 14.894531 16.898438 14.628906 17.078125 14.355469 C 17.246094 14.117188 17.417969 13.886719 17.589844 13.648438 C 18.21875 12.804688 18.886719 11.992188 19.601562 11.25 C 21.007812 9.605469 22.785156 8.28125 25.027344 7.214844 C 25.71875 6.890625 26.460938 6.628906 27.3125 6.414062 C 25.582031 7.429688 24.148438 8.625 22.972656 10.003906 C 20.601562 12.453125 18.679688 15.472656 17.109375 19.234375 C 14.714844 24.960938 13.570312 31.015625 13.648438 37.660156 C 13.648438 38.0625 13.65625 38.464844 13.664062 38.863281 C 13.792969 44.828125 14.933594 50.320312 17.121094 55.535156 C 18.6875 59.296875 20.609375 62.316406 22.945312 64.722656 C 24.148438 66.144531 25.589844 67.339844 27.320312 68.355469 C 26.46875 68.148438 25.726562 67.886719 25.035156 67.5625 Z M 29.667969 67.65625 C 27.414062 66.589844 25.648438 65.265625 24.214844 63.578125 C 24.164062 63.527344 24.121094 63.476562 24.070312 63.425781 C 21.914062 61.164062 20.15625 58.367188 18.699219 54.875 C 16.597656 49.851562 15.507812 44.570312 15.378906 38.820312 C 15.371094 38.429688 15.363281 38.046875 15.363281 37.660156 C 15.292969 31.246094 16.394531 25.410156 18.6875 19.890625 C 20.140625 16.421875 21.886719 13.640625 24.070312 11.335938 C 24.121094 11.277344 24.183594 11.207031 24.242188 11.148438 C 25.640625 9.503906 27.40625 8.179688 29.667969 7.113281 C 29.863281 7.011719 30.070312 6.925781 30.273438 6.847656 L 30.28125 6.847656 C 30.488281 6.917969 30.691406 6.996094 30.878906 7.070312 C 29.609375 7.933594 28.5 8.921875 27.578125 10.003906 C 25.207031 12.453125 23.285156 15.472656 21.71875 19.234375 C 19.320312 24.960938 18.175781 31.015625 18.253906 37.660156 C 18.253906 38.0625 18.261719 38.464844 18.269531 38.863281 C 18.398438 44.828125 19.542969 50.320312 21.726562 55.535156 C 23.296875 59.304688 25.214844 62.324219 27.550781 64.722656 C 28.816406 66.214844 30.339844 67.460938 32.203125 68.515625 C 31.246094 68.296875 30.417969 68.023438 29.667969 67.65625 Z M 34.265625 67.65625 C 32.015625 66.589844 30.246094 65.265625 28.816406 63.578125 C 28.761719 63.527344 28.710938 63.476562 28.667969 63.425781 C 26.511719 61.164062 24.753906 58.367188 23.296875 54.875 C 21.195312 49.851562 20.105469 44.570312 19.976562 38.820312 C 19.96875 38.429688 19.960938 38.046875 19.960938 37.652344 C 19.890625 31.238281 20.992188 25.402344 23.285156 19.890625 C 24.730469 16.429688 26.484375 13.640625 28.667969 11.335938 C 28.722656 11.277344 28.78125 11.207031 28.839844 11.148438 C 29.882812 9.921875 31.167969 8.855469 32.660156 7.976562 C 32.621094 7.949219 32.585938 7.933594 32.550781 7.90625 C 32.59375 7.925781 32.636719 7.941406 32.671875 7.964844 C 32.703125 7.984375 32.738281 8.007812 32.773438 8.027344 C 32.824219 8.050781 32.875 8.078125 32.917969 8.113281 C 33.164062 8.257812 33.402344 8.402344 33.632812 8.5625 C 33.132812 9.007812 32.652344 9.503906 32.21875 10.003906 C 29.847656 12.453125 27.925781 15.472656 26.359375 19.234375 C 23.960938 24.960938 22.816406 31.015625 22.894531 37.660156 C 22.894531 38.0625 22.902344 38.464844 22.910156 38.863281 C 23.039062 44.828125 24.183594 50.320312 26.367188 55.535156 C 27.9375 59.296875 29.855469 62.316406 32.191406 64.722656 C 33.464844 66.222656 35.007812 67.476562 36.875 68.535156 C 35.886719 68.3125 35.035156 68.03125 34.265625 67.65625 Z M 38.90625 67.65625 C 36.664062 66.589844 34.886719 65.265625 33.457031 63.578125 C 33.402344 63.527344 33.363281 63.476562 33.308594 63.425781 C 31.152344 61.164062 29.394531 58.367188 27.9375 54.875 C 25.835938 49.851562 24.746094 44.570312 24.617188 38.820312 C 24.609375 38.429688 24.601562 38.046875 24.601562 37.660156 C 24.601562 36.59375 24.636719 35.503906 24.703125 34.402344 C 25.035156 28.730469 26.246094 23.6875 28.40625 18.972656 C 29.734375 16.054688 31.246094 13.613281 33.175781 11.523438 L 33.308594 11.34375 C 33.363281 11.277344 33.421875 11.21875 33.480469 11.15625 C 33.96875 10.585938 34.488281 10.066406 35.035156 9.597656 C 35.050781 9.597656 35.058594 9.613281 35.078125 9.628906 C 35.273438 9.792969 35.46875 9.964844 35.65625 10.140625 C 35.671875 10.140625 35.699219 10.175781 35.714844 10.191406 C 35.914062 10.371094 36.109375 10.558594 36.289062 10.765625 C 36.296875 10.765625 36.304688 10.765625 36.3125 10.78125 L 36.304688 10.78125 C 33.695312 13.792969 31.671875 17.367188 30.144531 21.699219 C 28.464844 26.496094 27.59375 31.671875 27.5625 37.097656 C 27.519531 42.082031 28.175781 46.867188 29.515625 51.335938 C 31.253906 57.128906 34.179688 62.171875 37.96875 65.898438 C 38.445312 66.359375 38.890625 66.75 39.324219 67.09375 C 39.988281 67.613281 40.707031 68.089844 41.464844 68.515625 C 40.492188 68.304688 39.664062 68.023438 38.90625 67.65625 Z M 42.242188 66.949219 C 41.976562 66.792969 41.722656 66.625 41.472656 66.453125 C 41.421875 66.417969 41.355469 66.375 41.285156 66.324219 C 41.765625 65.898438 42.207031 65.429688 42.617188 64.949219 C 44.988281 62.503906 46.90625 59.484375 48.488281 55.722656 C 50.875 49.988281 52.019531 43.933594 51.941406 37.285156 C 51.941406 36.917969 51.933594 36.554688 51.925781 36.1875 C 51.804688 30.1875 50.660156 24.667969 48.476562 19.421875 C 46.898438 15.652344 44.980469 12.632812 42.652344 10.234375 C 41.378906 8.734375 39.84375 7.480469 37.96875 6.429688 C 38.957031 6.644531 39.800781 6.925781 40.570312 7.292969 C 42.820312 8.367188 44.585938 9.691406 46.03125 11.378906 C 46.070312 11.421875 46.125 11.472656 46.167969 11.523438 C 48.324219 13.785156 50.089844 16.589844 51.539062 20.082031 C 52.128906 21.488281 52.640625 22.921875 53.066406 24.371094 C 53.246094 24.949219 53.398438 25.53125 53.546875 26.121094 C 53.699219 26.707031 53.828125 27.304688 53.945312 27.902344 C 54.015625 28.242188 54.082031 28.585938 54.140625 28.925781 C 54.414062 30.394531 54.59375 31.886719 54.714844 33.40625 C 54.738281 33.71875 54.765625 34.035156 54.773438 34.351562 C 54.789062 34.597656 54.808594 34.855469 54.816406 35.101562 C 54.832031 35.359375 54.839844 35.613281 54.851562 35.871094 C 54.867188 36.347656 54.875 36.824219 54.875 37.296875 C 54.953125 43.710938 53.851562 49.542969 51.550781 55.0625 C 50.105469 58.527344 48.351562 61.316406 46.167969 63.613281 C 46.113281 63.679688 46.054688 63.738281 45.996094 63.800781 C 44.945312 65.027344 43.71875 66.070312 42.242188 66.949219 Z M 45.175781 67.84375 C 44.996094 67.929688 44.816406 68.011719 44.628906 68.082031 C 44.628906 68.082031 44.621094 68.082031 44.613281 68.082031 L 44.605469 68.082031 C 44.511719 68.039062 44.410156 68.003906 44.316406 67.960938 C 44.210938 67.917969 44.109375 67.878906 44.007812 67.835938 C 45.253906 66.980469 46.355469 66.007812 47.257812 64.941406 C 49.628906 62.496094 51.550781 59.472656 53.128906 55.710938 C 55.515625 49.980469 56.660156 43.933594 56.582031 37.277344 C 56.582031 36.910156 56.574219 36.542969 56.566406 36.175781 C 56.445312 30.179688 55.300781 24.660156 53.117188 19.414062 C 51.539062 15.644531 49.621094 12.625 47.292969 10.226562 C 46.03125 8.734375 44.503906 7.488281 42.644531 6.441406 C 43.597656 6.652344 44.417969 6.925781 45.167969 7.285156 C 47.421875 8.359375 49.1875 9.679688 50.628906 11.371094 C 50.671875 11.414062 50.722656 11.464844 50.765625 11.515625 C 52.921875 13.777344 54.6875 16.582031 56.136719 20.070312 C 58.253906 25.121094 59.355469 30.445312 59.457031 36.238281 C 59.464844 36.585938 59.472656 36.9375 59.472656 37.285156 C 59.550781 43.703125 58.449219 49.535156 56.148438 55.054688 C 54.707031 58.519531 52.949219 61.308594 50.765625 63.601562 C 50.710938 63.671875 50.652344 63.730469 50.59375 63.789062 C 49.195312 65.445312 47.429688 66.757812 45.175781 67.835938 Z M 49.800781 67.742188 C 49.109375 68.066406 48.367188 68.328125 47.515625 68.535156 C 49.246094 67.527344 50.679688 66.332031 51.855469 64.949219 C 54.234375 62.503906 56.148438 59.484375 57.726562 55.722656 C 60.113281 49.988281 61.257812 43.941406 61.179688 37.285156 C 61.179688 36.917969 61.171875 36.554688 61.164062 36.1875 C 61.042969 30.1875 59.898438 24.667969 57.714844 19.421875 C 56.136719 15.652344 54.21875 12.632812 51.890625 10.234375 C 50.6875 8.820312 49.246094 7.625 47.515625 6.601562 C 48.367188 6.804688 49.101562 7.070312 49.792969 7.394531 C 52.035156 8.460938 53.808594 9.785156 55.25 11.472656 C 56.4375 12.691406 57.484375 14.074219 58.449219 15.609375 C 58.511719 15.703125 58.570312 15.804688 58.621094 15.898438 C 58.65625 15.953125 58.679688 16.003906 58.714844 16.054688 C 59.011719 16.566406 59.3125 17.085938 59.59375 17.640625 C 59.59375 17.640625 59.59375 17.667969 59.609375 17.675781 C 60.019531 18.46875 60.402344 19.296875 60.761719 20.175781 C 61.863281 22.808594 62.679688 25.503906 63.234375 28.3125 C 63.320312 28.714844 63.390625 29.113281 63.457031 29.523438 C 63.507812 29.796875 63.550781 30.070312 63.585938 30.34375 C 63.636719 30.675781 63.6875 31.015625 63.722656 31.359375 C 63.773438 31.699219 63.808594 32.039062 63.839844 32.382812 C 63.875 32.730469 63.902344 33.074219 63.933594 33.421875 C 63.988281 34.019531 64.027344 34.617188 64.046875 35.222656 C 64.054688 35.46875 64.0625 35.707031 64.070312 35.957031 C 64.089844 36.484375 64.097656 37.003906 64.097656 37.515625 C 64.097656 38.070312 64.097656 38.617188 64.070312 39.164062 C 64.011719 41.800781 63.730469 44.324219 63.246094 46.78125 C 63.226562 46.882812 63.210938 46.984375 63.183594 47.097656 C 63.117188 47.4375 63.039062 47.769531 62.960938 48.101562 C 62.894531 48.4375 62.816406 48.777344 62.722656 49.109375 C 62.210938 51.105469 61.5625 53.058594 60.761719 54.960938 C 60.414062 55.796875 60.046875 56.589844 59.660156 57.359375 C 59.636719 57.410156 59.609375 57.460938 59.585938 57.519531 C 59.492188 57.699219 59.398438 57.871094 59.304688 58.042969 C 59.175781 58.28125 59.046875 58.527344 58.910156 58.757812 C 58.84375 58.878906 58.773438 58.996094 58.707031 59.117188 C 58.570312 59.339844 58.433594 59.558594 58.296875 59.78125 C 57.375 61.222656 56.359375 62.527344 55.226562 63.695312 C 53.816406 65.351562 52.042969 66.664062 49.800781 67.742188 Z M 68.472656 41.585938 C 68.054688 46.832031 66.886719 51.5 64.898438 55.867188 C 63.269531 59.449219 61.332031 62.265625 58.960938 64.492188 C 58.714844 64.730469 58.457031 64.949219 58.21875 65.164062 C 57.714844 65.582031 57.332031 65.890625 56.941406 66.164062 C 56.324219 66.605469 55.660156 67.015625 54.96875 67.375 C 54.296875 67.714844 53.648438 67.996094 52.980469 68.210938 C 52.667969 68.3125 52.359375 68.40625 52.050781 68.484375 C 53.828125 67.460938 55.285156 66.257812 56.488281 64.847656 C 56.503906 64.832031 56.523438 64.804688 56.539062 64.789062 C 58.015625 63.261719 59.304688 61.523438 60.4375 59.527344 C 60.804688 58.878906 61.164062 58.203125 61.496094 57.503906 C 61.792969 56.898438 62.066406 56.265625 62.339844 55.617188 C 63.191406 53.578125 63.894531 51.488281 64.429688 49.347656 C 64.445312 49.28125 64.464844 49.210938 64.480469 49.136719 C 64.652344 48.410156 64.8125 47.667969 64.949219 46.925781 C 65.0625 46.363281 65.15625 45.78125 65.242188 45.210938 C 65.257812 45.09375 65.273438 44.980469 65.292969 44.863281 C 65.359375 44.417969 65.410156 43.972656 65.460938 43.523438 C 65.511719 43.128906 65.554688 42.738281 65.582031 42.34375 C 65.675781 41.382812 65.734375 40.398438 65.761719 39.410156 C 65.769531 39.199219 65.777344 38.984375 65.777344 38.777344 C 65.796875 38.308594 65.804688 37.839844 65.804688 37.378906 C 65.804688 36.894531 65.796875 36.398438 65.777344 35.90625 C 65.761719 35.402344 65.742188 34.890625 65.710938 34.378906 C 65.683594 33.941406 65.648438 33.5 65.605469 33.074219 C 65.589844 32.867188 65.574219 32.671875 65.554688 32.476562 C 65.546875 32.382812 65.539062 32.296875 65.53125 32.203125 C 65.460938 31.496094 65.375 30.785156 65.273438 30.085938 C 65.171875 29.386719 65.0625 28.695312 64.925781 28.023438 C 64.855469 27.65625 64.78125 27.289062 64.695312 26.929688 C 64.625 26.613281 64.558594 26.300781 64.472656 25.984375 C 63.925781 23.773438 63.210938 21.625 62.339844 19.515625 C 60.796875 15.789062 58.886719 12.777344 56.539062 10.355469 L 56.511719 10.328125 C 55.21875 8.800781 53.640625 7.53125 51.726562 6.472656 C 54.339844 7.0625 56.683594 8.351562 58.832031 10.371094 C 61.769531 13.109375 64.039062 16.652344 65.769531 21.199219 C 67.679688 26.238281 68.644531 31.671875 68.644531 37.390625 C 68.644531 38.769531 68.585938 40.167969 68.472656 41.585938 Z M 68.472656 41.585938 "></path></g></g></svg></svg></g></g></svg></g></svg>